<svg id="svg" version="1.1" xmlns="http://www.w3.org/2000/svg" xmlns:xlink="http://www.w3.org/1999/xlink" width="400" height="285.7142857142857" viewBox="0, 0, 400,285.7142857142857"><g id="svgg"><path id="path0" d="M64.952 142.667 L 64.952 178.667 73.523 178.667 L 82.093 178.667 82.142 162.992 L 82.190 147.317 103.524 162.987 L 124.857 178.657 138.558 178.662 L 152.258 178.667 145.224 173.664 C 141.356 170.912,129.340 162.370,118.524 154.682 C 107.707 146.993,98.857 140.651,98.857 140.588 C 98.857 140.525,109.526 132.888,122.566 123.618 L 146.275 106.762 133.988 106.713 L 121.700 106.664 101.945 121.516 L 82.190 136.369 82.142 121.518 L 82.093 106.667 73.523 106.667 L 64.952 106.667 64.952 142.667 M253.381 136.429 C 253.437 164.130,253.465 166.309,253.783 167.905 C 255.171 174.877,258.191 177.526,265.810 178.456 C 268.200 178.748,319.990 178.748,322.381 178.456 C 329.284 177.614,332.529 175.188,333.894 169.852 C 334.747 166.515,334.734 167.002,334.805 136.143 L 334.873 106.667 326.389 106.667 L 317.905 106.667 317.905 135.905 L 317.905 165.143 294.095 165.143 L 270.286 165.143 270.286 135.905 L 270.286 106.667 261.803 106.667 L 253.321 106.667 253.381 136.429 " stroke="none" fill="#fcfcfc" fill-rule="evenodd"></path><path id="path1" d="M13.714 142.667 L 13.714 180.952 29.143 180.952 L 44.571 180.952 44.571 175.810 L 44.571 170.667 35.905 170.667 L 27.238 170.667 27.238 142.571 L 27.238 114.476 35.905 114.476 L 44.571 114.476 44.571 109.429 L 44.571 104.381 29.143 104.381 L 13.714 104.381 13.714 142.667 M189.729 105.571 C 189.432 106.226,181.328 123.348,171.721 143.619 C 162.113 163.890,154.207 180.585,154.152 180.718 C 154.072 180.910,155.000 180.949,158.675 180.908 L 163.299 180.857 180.783 144.190 C 190.399 124.024,198.613 106.817,199.037 105.952 L 199.807 104.381 195.038 104.381 L 190.270 104.381 189.729 105.571 M228.586 105.571 C 228.289 106.226,220.185 123.348,210.578 143.619 C 200.970 163.890,193.064 180.585,193.009 180.718 C 192.930 180.910,193.857 180.949,197.532 180.908 L 202.156 180.857 219.640 144.190 C 229.256 124.024,237.471 106.817,237.894 105.952 L 238.664 104.381 233.895 104.381 L 229.127 104.381 228.586 105.571 M355.429 109.429 L 355.429 114.476 364.190 114.476 L 372.952 114.476 372.952 142.571 L 372.952 170.667 364.190 170.667 L 355.429 170.667 355.429 175.810 L 355.429 180.952 370.952 180.952 L 386.476 180.952 386.476 142.667 L 386.476 104.381 370.952 104.381 L 355.429 104.381 355.429 109.429 " stroke="none" fill="#dc3444" fill-rule="evenodd"></path><path id="path2" d="" stroke="none" fill="#ecc8100" fill-rule="evenodd"></path><path id="path3" d="" stroke="none" fill="#ecc8100" fill-rule="evenodd"></path><path id="path4" d="" stroke="none" fill="#ecc8100" fill-rule="evenodd"></path></g></svg>